<svg width="38" height="34" viewBox="0 0 38 34" fill="none" xmlns="http://www.w3.org/2000/svg">
<path d="M16.8935 34C16.2755 34 15.8021 33.8411 15.4734 33.5234C15.1578 33.1924 15 32.7225 15 32.1135V21.8865C15 21.2775 15.1578 20.8142 15.4734 20.4965C15.8021 20.1655 16.2755 20 16.8935 20H23.5799C24.0533 20 24.4083 20.1191 24.645 20.3574C24.8817 20.5957 25 20.94 25 21.3901C25 21.8534 24.8817 22.2109 24.645 22.4624C24.4083 22.7007 24.0533 22.8199 23.5799 22.8199H18.4714V25.4809H23.146C23.6062 25.4809 23.9546 25.6 24.1913 25.8383C24.4412 26.0766 24.5661 26.4274 24.5661 26.8908C24.5661 27.3541 24.4412 27.705 24.1913 27.9433C23.9546 28.1816 23.6062 28.3007 23.146 28.3007H18.4714V31.1801H23.5799C24.0533 31.1801 24.4083 31.3059 24.645 31.5574C24.8817 31.7957 25 32.14 25 32.5901C25 33.0534 24.8817 33.4043 24.645 33.6426C24.4083 33.8809 24.0533 34 23.5799 34H16.8935Z" fill="black"/>
<path d="M28.8935 34C28.2755 34 27.8021 33.8411 27.4734 33.5234C27.1578 33.1924 27 32.7225 27 32.1135V21.8865C27 21.2775 27.1578 20.8142 27.4734 20.4965C27.8021 20.1655 28.2755 20 28.8935 20H35.5799C36.0533 20 36.4083 20.1191 36.645 20.3574C36.8817 20.5957 37 20.94 37 21.3901C37 21.8534 36.8817 22.2109 36.645 22.4624C36.4083 22.7007 36.0533 22.8199 35.5799 22.8199H30.4714V25.4809H35.146C35.6062 25.4809 35.9546 25.6 36.1913 25.8383C36.4412 26.0766 36.5661 26.4274 36.5661 26.8908C36.5661 27.3541 36.4412 27.705 36.1913 27.9433C35.9546 28.1816 35.6062 28.3007 35.146 28.3007H30.4714V31.1801H35.5799C36.0533 31.1801 36.4083 31.3059 36.645 31.5574C36.8817 31.7957 37 32.14 37 32.5901C37 33.0534 36.8817 33.4043 36.645 33.6426C36.4083 33.8809 36.0533 34 35.5799 34H28.8935Z" fill="black"/>
<path d="M1.81763 34C1.2381 34 0.790273 33.8451 0.474164 33.5353C0.158055 33.2125 0 32.7607 0 32.1798V21.8202C0 21.2264 0.158055 20.7746 0.474164 20.4647C0.790273 20.1549 1.2381 20 1.81763 20C2.41033 20 2.85816 20.1549 3.16109 20.4647C3.4772 20.7746 3.63526 21.2264 3.63526 21.8202V25.4412H9.3845V21.8202C9.3845 21.2264 9.53596 20.7746 9.8389 20.4647C10.155 20.1549 10.6094 20 11.2021 20C11.7817 20 12.2229 20.1549 12.5258 20.4647C12.8419 20.7746 13 21.2264 13 21.8202V32.1798C13 32.7607 12.8419 33.2125 12.5258 33.5353C12.2229 33.8451 11.7817 34 11.2021 34C10.6094 34 10.155 33.8451 9.8389 33.5353C9.53596 33.2125 9.3845 32.7607 9.3845 32.1798V28.3651H3.63526V32.1798C3.63526 32.7607 3.48379 33.2125 3.18085 33.5353C2.87791 33.8451 2.42351 34 1.81763 34Z" fill="black"/>
<path d="M24.064 17.352C23.392 17.352 22.88 17.176 22.528 16.824C22.176 16.472 22 15.952 22 15.264V2.184C22 1.48 22.176 0.944 22.528 0.576C22.88 0.192 23.344 0 23.92 0C24.432 0 24.832 0.0960002 25.12 0.288001C25.408 0.48 25.728 0.8 26.08 1.248L33.688 10.752H33.016V2.064C33.016 1.392 33.184 0.880001 33.52 0.528C33.872 0.176 34.384 0 35.056 0C35.728 0 36.232 0.176 36.568 0.528C36.92 0.880001 37.096 1.392 37.096 2.064V15.36C37.096 15.968 36.936 16.456 36.616 16.824C36.296 17.176 35.864 17.352 35.32 17.352C34.776 17.352 34.344 17.256 34.024 17.064C33.72 16.856 33.392 16.536 33.04 16.104L25.432 6.576H26.104V15.264C26.104 15.952 25.928 16.472 25.576 16.824C25.24 17.176 24.736 17.352 24.064 17.352Z" fill="black"/>
<path d="M15.352 11.592C14.936 11.592 14.6 11.456 14.344 11.184C14.104 10.912 13.952 10.536 13.888 10.056L13.048 2.808C12.936 1.976 13.088 1.304 13.504 0.792C13.92 0.264 14.536 0 15.352 0C16.184 0 16.8 0.264 17.2 0.792C17.6 1.304 17.744 1.976 17.632 2.808L16.816 10.056C16.752 10.536 16.6 10.912 16.36 11.184C16.12 11.456 15.784 11.592 15.352 11.592ZM15.352 17.28C14.632 17.28 14.056 17.064 13.624 16.632C13.208 16.2 13 15.632 13 14.928C13 14.24 13.208 13.688 13.624 13.272C14.056 12.84 14.632 12.624 15.352 12.624C16.104 12.624 16.68 12.84 17.08 13.272C17.496 13.688 17.704 14.24 17.704 14.928C17.704 15.632 17.496 16.2 17.08 16.632C16.68 17.064 16.104 17.28 15.352 17.28Z" fill="#FDCB6E"/>
<path d="M1.992 17.328C1.352 17.36 0.856 17.2 0.504 16.848C0.168 16.48 0 16.016 0 15.456C0 15.024 0.12 14.648 0.36 14.328C0.6 14.008 0.96 13.832 1.44 13.8L2.112 13.752C2.688 13.72 3.112 13.584 3.384 13.344C3.656 13.088 3.792 12.672 3.792 12.096V2.232C3.792 1.496 3.984 0.944 4.368 0.576C4.752 0.192 5.296 0 6 0C6.704 0 7.248 0.192 7.632 0.576C8.016 0.944 8.208 1.496 8.208 2.232V12.024C8.208 13.128 8.008 14.064 7.608 14.832C7.208 15.584 6.608 16.168 5.808 16.584C5.024 16.984 4.04 17.216 2.856 17.28L1.992 17.328Z" fill="black"/>
</svg>
