<svg width="90" height="19" viewBox="0 0 90 19" fill="none" xmlns="http://www.w3.org/2000/svg">
<path d="M2.632 18.192C1.992 18.224 1.496 18.064 1.144 17.712C0.808 17.344 0.64 16.88 0.64 16.32C0.64 15.888 0.76 15.512 1 15.192C1.24 14.872 1.6 14.696 2.08 14.664L2.752 14.616C3.328 14.584 3.752 14.448 4.024 14.208C4.296 13.952 4.432 13.536 4.432 12.96V3.096C4.432 2.36 4.624 1.808 5.008 1.44C5.392 1.056 5.936 0.863999 6.64 0.863999C7.344 0.863999 7.888 1.056 8.272 1.44C8.656 1.808 8.848 2.36 8.848 3.096V12.888C8.848 13.992 8.648 14.928 8.248 15.696C7.848 16.448 7.248 17.032 6.448 17.448C5.664 17.848 4.68 18.08 3.496 18.144L2.632 18.192ZM20.4906 18.216C19.8186 18.216 19.3066 18.04 18.9546 17.688C18.6026 17.336 18.4266 16.816 18.4266 16.128V3.048C18.4266 2.344 18.6026 1.808 18.9546 1.44C19.3066 1.056 19.7706 0.863999 20.3466 0.863999C20.8586 0.863999 21.2586 0.959999 21.5466 1.152C21.8346 1.344 22.1546 1.664 22.5066 2.112L30.1146 11.616H29.4426V2.928C29.4426 2.256 29.6106 1.744 29.9466 1.392C30.2986 1.04 30.8106 0.863999 31.4826 0.863999C32.1546 0.863999 32.6586 1.04 32.9946 1.392C33.3466 1.744 33.5226 2.256 33.5226 2.928V16.224C33.5226 16.832 33.3626 17.32 33.0426 17.688C32.7226 18.04 32.2906 18.216 31.7466 18.216C31.2026 18.216 30.7706 18.12 30.4506 17.928C30.1466 17.72 29.8186 17.4 29.4666 16.968L21.8586 7.44H22.5306V16.128C22.5306 16.816 22.3546 17.336 22.0026 17.688C21.6666 18.04 21.1626 18.216 20.4906 18.216ZM45.6893 18.216C44.9853 18.216 44.4413 18.024 44.0573 17.64C43.6733 17.24 43.4813 16.68 43.4813 15.96V3.12C43.4813 2.384 43.6733 1.824 44.0573 1.44C44.4413 1.056 44.9853 0.863999 45.6893 0.863999C46.4093 0.863999 46.9533 1.056 47.3213 1.44C47.7053 1.824 47.8973 2.384 47.8973 3.12V7.608H54.8813V3.12C54.8813 2.384 55.0653 1.824 55.4333 1.44C55.8173 1.056 56.3693 0.863999 57.0893 0.863999C57.7933 0.863999 58.3293 1.056 58.6973 1.44C59.0813 1.824 59.2733 2.384 59.2733 3.12V15.96C59.2733 16.68 59.0813 17.24 58.6973 17.64C58.3293 18.024 57.7933 18.216 57.0893 18.216C56.3693 18.216 55.8173 18.024 55.4333 17.64C55.0653 17.24 54.8813 16.68 54.8813 15.96V11.232H47.8973V15.96C47.8973 16.68 47.7133 17.24 47.3453 17.64C46.9773 18.024 46.4253 18.216 45.6893 18.216ZM64.6525 18C63.9005 18 63.3245 17.808 62.9245 17.424C62.5405 17.024 62.3485 16.456 62.3485 15.72V3.36C62.3485 2.624 62.5405 2.064 62.9245 1.68C63.3245 1.28 63.9005 1.08 64.6525 1.08H72.7885C73.3645 1.08 73.7965 1.224 74.0845 1.512C74.3725 1.8 74.5165 2.216 74.5165 2.76C74.5165 3.32 74.3725 3.752 74.0845 4.056C73.7965 4.344 73.3645 4.488 72.7885 4.488H66.5725V7.704H72.2605C72.8205 7.704 73.2445 7.848 73.5325 8.136C73.8365 8.424 73.9885 8.848 73.9885 9.408C73.9885 9.968 73.8365 10.392 73.5325 10.68C73.2445 10.968 72.8205 11.112 72.2605 11.112H66.5725V14.592H72.7885C73.3645 14.592 73.7965 14.744 74.0845 15.048C74.3725 15.336 74.5165 15.752 74.5165 16.296C74.5165 16.856 74.3725 17.28 74.0845 17.568C73.7965 17.856 73.3645 18 72.7885 18H64.6525ZM79.3947 18C78.6427 18 78.0667 17.808 77.6667 17.424C77.2827 17.024 77.0907 16.456 77.0907 15.72V3.36C77.0907 2.624 77.2827 2.064 77.6667 1.68C78.0667 1.28 78.6427 1.08 79.3947 1.08H87.5307C88.1067 1.08 88.5387 1.224 88.8267 1.512C89.1147 1.8 89.2587 2.216 89.2587 2.76C89.2587 3.32 89.1147 3.752 88.8267 4.056C88.5387 4.344 88.1067 4.488 87.5307 4.488H81.3147V7.704H87.0027C87.5627 7.704 87.9867 7.848 88.2747 8.136C88.5787 8.424 88.7307 8.848 88.7307 9.408C88.7307 9.968 88.5787 10.392 88.2747 10.68C87.9867 10.968 87.5627 11.112 87.0027 11.112H81.3147V14.592H87.5307C88.1067 14.592 88.5387 14.744 88.8267 15.048C89.1147 15.336 89.2587 15.752 89.2587 16.296C89.2587 16.856 89.1147 17.28 88.8267 17.568C88.5387 17.856 88.1067 18 87.5307 18H79.3947Z" fill="#353535"/>
<path d="M13.6156 12.456C13.1996 12.456 12.8636 12.32 12.6076 12.048C12.3676 11.776 12.2156 11.4 12.1516 10.92L11.3116 3.672C11.1996 2.84 11.3516 2.168 11.7676 1.656C12.1836 1.128 12.7996 0.863999 13.6156 0.863999C14.4476 0.863999 15.0636 1.128 15.4636 1.656C15.8636 2.168 16.0076 2.84 15.8956 3.672L15.0796 10.92C15.0156 11.4 14.8636 11.776 14.6236 12.048C14.3836 12.32 14.0476 12.456 13.6156 12.456ZM13.6156 18.144C12.8956 18.144 12.3196 17.928 11.8876 17.496C11.4716 17.064 11.2636 16.496 11.2636 15.792C11.2636 15.104 11.4716 14.552 11.8876 14.136C12.3196 13.704 12.8956 13.488 13.6156 13.488C14.3676 13.488 14.9436 13.704 15.3436 14.136C15.7596 14.552 15.9676 15.104 15.9676 15.792C15.9676 16.496 15.7596 17.064 15.3436 17.496C14.9436 17.928 14.3676 18.144 13.6156 18.144Z" fill="#FDCB6E"/>
</svg>
