<svg id="Layer_1" data-name="Layer 1" xmlns="http://www.w3.org/2000/svg" viewBox="0 0 613.16 123.13"><defs><style>.cls-1{fill:#231916;}</style></defs><path class="cls-1" d="M579.12,130.35a3.8,3.8,0,0,0,3.8-3.8V57.16c0-2.44-.22-5.3,1.56-7.23,1.84-2.19,4.85-1.73,7.4-1h0a20.45,20.45,0,1,0-14.16-23.5,20.06,20.06,0,0,0,.85,10.86l0,0a11.15,11.15,0,0,1,.86,6,5,5,0,0,1-4.29,4c-1.77.18-3.14,0-5,.18-6.18.47-11.14,5.13-11.14,10.84v69.18a3.92,3.92,0,0,0,3.93,3.92Z" transform="translate(-15.95 -8.85)"/><path class="cls-1" d="M510.2,44.28a37,37,0,0,0-25,9.07,36.9,36.9,0,0,0-25-9.07c-9.93,0-18.17,2.41-24.77,7.39q-11.94,9-11.92,25.85v48.93a3.84,3.84,0,0,0,3.9,3.9H443a3.89,3.89,0,0,0,2.92-1.14,4.21,4.21,0,0,0,1.11-2.76V68.73a10.93,10.93,0,0,1,3.9-8.56,14.27,14.27,0,0,1,18.84,0,10.86,10.86,0,0,1,3.93,8.56v57.72a4.45,4.45,0,0,0,1.24,2.89,4.15,4.15,0,0,0,2.75,1h15.23a3.6,3.6,0,0,0,2.79-1,4,4,0,0,0,1.17-2.85V68.73a10.93,10.93,0,0,1,3.9-8.56,14.06,14.06,0,0,1,18.68,0,11,11,0,0,1,3.87,8.56v57.72a4,4,0,0,0,4,3.9h15.51c3.94,0,4-3.9,4-3.9V77.52A32.68,32.68,0,0,0,543.22,61Q534.66,44.27,510.2,44.28Z" transform="translate(-15.95 -8.85)"/><path class="cls-1" d="M102.69,44.47a37,37,0,0,0-25,9,37,37,0,0,0-25-9c-9.9,0-18.18,2.44-24.8,7.39-7.93,6-12,14.59-12,25.88v48.71a4.22,4.22,0,0,0,1.21,2.82,4.06,4.06,0,0,0,2.75,1.08H35.49a4,4,0,0,0,2.94-1.14,3.71,3.71,0,0,0,1-2.76V68.92a11.25,11.25,0,0,1,3.93-8.59,13.66,13.66,0,0,1,9.42-3.49,14.12,14.12,0,0,1,9.55,3.49,11.53,11.53,0,0,1,3.87,8.59v57.53a3.73,3.73,0,0,0,3.93,3.9H85.43a3.68,3.68,0,0,0,2.86-1,4.58,4.58,0,0,0,1.11-2.85V68.92a11.25,11.25,0,0,1,3.8-8.59,13.71,13.71,0,0,1,9.39-3.49,13.52,13.52,0,0,1,9.32,3.49,11.29,11.29,0,0,1,3.87,8.59v57.53a4,4,0,0,0,4,3.9h15.54c3.9,0,4-3.9,4-3.9V77.74a32.32,32.32,0,0,0-3.58-16.62C130,50,119,44.47,102.69,44.47Z" transform="translate(-15.95 -8.85)"/><path class="cls-1" d="M310.76,54.59C303.11,47.8,294,44.44,283.2,44.44s-19.95,3.33-27.62,10.15-11.23,14.9-11,24.48v47.38s0,3.9,4,3.9h15.13a3.76,3.76,0,0,0,3.9-3.9V70.29a12.38,12.38,0,0,1,4.35-9.9,16.52,16.52,0,0,1,11.35-4.15,17,17,0,0,1,11.32,4.09,12.59,12.59,0,0,1,4.38,9.86v56.26s.09,3.9,4,3.9h14.94a4.06,4.06,0,0,0,2.85-1.14,4,4,0,0,0,1.11-3V79.07C322.08,69.49,318.4,61.37,310.76,54.59Z" transform="translate(-15.95 -8.85)"/><path class="cls-1" d="M411.35,78.66c.29-9.51-3.36-17.7-11-24.48a42.4,42.4,0,0,0-55.12,0q-11.46,10.17-11.07,24.48v47.79s.06,3.9,4,3.9h15.13a3.74,3.74,0,0,0,3.9-3.9v-23h31.37v23s.12,3.9,4,3.9h14.88a4.34,4.34,0,0,0,2.92-1.14,3.7,3.7,0,0,0,1-3ZM388.49,88H357.12V69.91A12.42,12.42,0,0,1,361.5,60a16.58,16.58,0,0,1,11.32-4.12A17.05,17.05,0,0,1,384.17,60a12.6,12.6,0,0,1,4.32,9.92Z" transform="translate(-15.95 -8.85)"/><path class="cls-1" d="M191.93,44C169.35,44,152.35,59,150.86,76.79V99.24c1.52,18,18.33,32.79,41.07,32.73,22.35.19,40.18-14.43,41.19-32.73V76.79C232.08,58.71,214.47,44,191.93,44Zm17.41,61.78c.19,8-7.87,13.82-17.41,13.82s-17.19-6.15-17.19-13.82V70.16c0-8,8.18-13.67,17.19-13.79,10,0,17.41,6.12,17.41,13.79Z" transform="translate(-15.95 -8.85)"/><path class="cls-1" d="M613.76,103.89a8,8,0,0,1,5.12,1.37,5.08,5.08,0,0,1,1.67,4.18,4.74,4.74,0,0,1-1.46,3.84,6.82,6.82,0,0,1-3.65,1.44l5.56,8.56h-3.25l-5.28-8.34h-3.19v8.34h-3V103.89Zm-1.33,8.6c.68,0,1.32,0,1.93-.06a4.76,4.76,0,0,0,1.62-.38,2.44,2.44,0,0,0,1.13-1,3.28,3.28,0,0,0,.43-1.8,2.89,2.89,0,0,0-.38-1.55,2.7,2.7,0,0,0-1-.89,4.13,4.13,0,0,0-1.38-.42,11.25,11.25,0,0,0-1.53-.11h-4v6.16Z" transform="translate(-15.95 -8.85)"/><path class="cls-1" d="M612.68,130.06a16.43,16.43,0,1,1,16.43-16.42A16.45,16.45,0,0,1,612.68,130.06Zm0-30.24a13.82,13.82,0,1,0,13.81,13.82A13.83,13.83,0,0,0,612.68,99.82Z" transform="translate(-15.95 -8.85)"/></svg>